PathFileType	4	(X/Y/Z)	C:/Users/beibeiliu/ov580/test_trc\sequence.5_training_dense_left.trc
DataRate	CameraRate	NumFrames	NumMarkers	Units	OrigDataRate	OrigDataStartFrame	OrigNumFrames
120	120	14	19	mm	120	1	53
Frame#	Time	ThumbCMC			ThumbMCP			ThumbIP			ThumbTip			IndexMCP			IndexPIP			IndexTip			MiddleMCP			MiddlePIP			MiddleTip			RingMCP			RingPIP			RingTip			PinkyMCP			PinkyPIP			PinkyTip			BackHand1			BackHand2			BackHand3	
		X0	Y0	Z0	X1	Y1	Z1	X2	Y2	Z2	X3	Y3	Z3	X4	Y4	Z4	X5	Y5	Z5	X6	Y6	Z6	X7	Y7	Z7	X8	Y8	Z8	X9	Y9	Z9	X10	Y10	Z10	X11	Y11	Z11	X12	Y12	Z12	X13	Y13	Z13	X14	Y14	Z14	X15	Y15	Z15	X16	Y16	Z16	X17	Y17	Z17	X18	Y18	Z18	
0	0	-247.113	34.0207	103.022	-230.668	48.8075	77.1371	-224.62	56.2585	49.3132	-209.944	39.2714	25.0833	-243.99	15.6111	35.2061	-221.667	36.6986	33.2464	-223.278	34.1731	70.588	-226.536	5.34372	35.1251	-203.899	27.1236	42.3105	-212.328	23.6938	78.4428	-210.897	-1.85779	39.9973	-194.284	18.6816	50.9077	-204.696	17.7322	83.9028	-196.709	-14.6216	50.0984	-185.137	7.15616	61.1893	-200.511	12.4015	89.9939	-236.239	-31.3127	83.0157	-235.207	-27.659	120.1	-257.546	-7.34227	99.5307	
1	0.00833333	-254.964	28.5852	101.337	-240.742	41.039	74.8092	-235.375	41.8947	49.3219	-227.245	33.1068	22.6724	-264.055	4.3676	33.3339	-238.476	19.3934	20.2313	-224.988	26.8313	51.6855	-248.499	-7.96472	29.4446	-223.99	6.45739	23.4025	-215.521	15.0652	60.8582	-233.02	-24.651	36.0563	-212.443	-2.3793	34.1639	-212.645	8.2616	70.7991	-224.168	-34.7227	49.8355	-201.342	-11.1321	46.909	-202.843	2.70693	73.1992	-254.126	-37.0826	90.3919	-255.062	-31.3426	120.026	-272.482	-7.37444	99.9132	
2	0.0166667	-256.778	28.8453	101.994	-242.294	37.0978	76.9546	-237.881	41.2228	44.5955	-233.665	34.7617	25.5156	-275.927	7.15469	28.7274	-255.665	7.50216	9.69963	-227.183	19.9995	19.6994	-268.608	-15.7961	29.7044	-244.399	-8.21644	9.40202	-218.124	5.0202	30.7034	-259.415	-30.0902	35.8993	-231.174	-19.929	19.2176	-213.86	-5.78937	43.9434	-247.638	-47.0812	47.7581	-223.938	-35.9262	30.113	-210.448	-14.2078	45.9617	-270.849	-36.2344	89.7316	-269.441	-28.4763	118.212	-280.669	-3.51229	100.992	
3	0.025	-253.451	33.4394	93.7413	-235.201	35.9825	73.6306	-226.056	40.8179	47.7103	-219.486	38.6688	27.4567	-275.011	12.5079	24.7497	-259.284	12.8179	-1.87573	-233.11	4.17145	-6.60809	-278.419	-8.24357	26.1552	-260.413	-13.6025	-3.52771	-226.183	-13.9797	-4.82813	-275.83	-27.1129	29.5102	-256.253	-32.3767	4.29759	-227.725	-25.6512	3.85541	-267.188	-43.3054	46.3523	-253.928	-48.0493	18.3447	-224.731	-39.4193	11.7652	-282.947	-26.2726	79.793	-283.675	-25.2424	110.354	-285.008	7.25835	90.7987	
4	0.0333333	-242.814	32.1732	96.8593	-220.125	36.3363	74.0227	-205.799	42.0344	53.1762	-196.365	40.3005	30.9954	-263.087	25.0623	24.9745	-255.395	20.0901	-1.23498	-236.959	10.9175	-21.9496	-274.195	3.96533	17.2933	-261.961	-4.64228	-9.93919	-241.899	-14.9802	-26.5679	-277.404	-21.4447	27.963	-266.459	-26.221	-2.49287	-241.015	-34.7974	-17.1861	-275.524	-40.8212	41.861	-269.168	-44.3071	17.2646	-249.181	-52.7516	-4.27729	-286.237	-14.2328	75.7285	-286.574	-7.22512	103.532	-277.227	17.625	86.386	
5	0.0416667	-227.452	34.1447	94.5113	-204.305	33.8536	79.6597	-187.151	36.4483	56.7648	-172.712	37.4282	39.7087	-243.707	31.8695	26.7329	-239.266	23.5086	-2.96731	-230.48	18.6428	-23.8064	-261.046	8.9474	17.9867	-255.117	4.48341	-7.8786	-245.899	-9.8525	-32.4533	-269.727	-11.5711	26.3433	-264.584	-19.4048	-2.63199	-254.018	-29.4332	-23.1297	-273.332	-28.1981	40.5885	-270.876	-35.187	19.5658	-264.797	-48.9805	-5.19686	-277.624	1.43627	76.5932	-281.008	3.40244	103.189	-261.807	29.9615	86.1015	
6	0.05	-208.386	29.7005	99.3719	-184.459	24.6141	86.1728	-168.197	22.3881	70.4216	-152.606	22.7585	52.4944	-224.123	28.8627	25.0932	-217.166	28.6735	4.98464	-216.28	22.9537	-20.8505	-245.025	14.1941	18.6395	-240.52	12.1407	-3.50668	-238.976	3.71219	-34.449	-254.98	0.334426	27.8669	-256.046	-7.25372	0.642371	-251.514	-13.1538	-28.2909	-269.52	-20.3928	38.8634	-268.878	-27.4484	14.1176	-272.197	-34.3157	-7.34445	-263.617	9.74717	76.1987	-271.848	12.489	103.532	-246.519	32.2	88.2641	
7	0.0583333	-195.31	20.9319	107.065	-172.8	9.93558	94.234	-149.822	7.70139	75.0505	-133.403	5.06469	64.0169	-204.081	26.7296	29.1723	-196.221	25.6985	3.83329	-198.794	24.3969	-17.4992	-227.034	18.5804	19.8612	-225.249	16.0069	-2.89606	-222.076	14.1004	-35.5555	-242.595	7.09949	26.0784	-247.332	0.858694	0.0260905	-245.858	-1.67699	-24.676	-263.387	-8.7084	34.3081	-263.327	-14.1455	16.3503	-270.642	-16.9482	-10.6459	-256.008	15.1359	74.6781	-259.236	20.9608	100.333	-226.193	34.6799	88.379	
8	0.0666667	-185.944	11.105	106.323	-165.77	-3.24537	94.594	-146.486	-9.13733	80.5036	-125.336	-13.9237	66.8248	-190.679	20.7929	33.4732	-183.202	20.0755	5.70442	-178.096	22.051	-17.9129	-214.153	18.1291	24.1774	-214.724	15.494	-5.47745	-211.51	14.7925	-31.5504	-234.299	9.17129	24.2515	-237.053	5.68621	0.725095	-233.113	5.24636	-26.616	-256.457	-3.1008	37.8593	-256.983	-7.22194	17.0031	-266.194	-5.47552	-7.8442	-242.64	18.8877	72.9112	-249.671	24.5596	102.741	-214.779	29.5027	90.3877	
9	0.075	-185.799	5.11607	108.779	-160.7	-10.0406	98.5145	-141.117	-16.0507	86.5744	-127.058	-24.1573	72.111	-185.257	16.3781	34.2344	-182.024	15.5621	11.6152	-177.541	17.9227	-14.0725	-208.375	15.6863	23.3003	-206.317	13.914	-1.73791	-205.861	11.4848	-28.9524	-227.415	8.04184	24.3447	-234.309	4.46199	3.00869	-230.732	2.5794	-24.1661	-249.147	-3.65447	39.0235	-255.794	-8.15884	14.7286	-261.379	-5.84649	-6.73752	-241.929	16.9436	73.9639	-245.215	22.7709	99.5908	-210.115	26.0972	92.6211	
10	0.0833333	-183.482	7.60728	107.417	-162.705	-7.54559	98.3373	-141.414	-14.5686	84.2351	-122.844	-20.5052	71.2344	-188.329	16.9988	32.7219	-179.919	16.4712	10.638	-178.244	15.8367	-17.3378	-210.337	15.552	21.6108	-207.64	12.1975	-1.13051	-209.334	7.32118	-29.5803	-233.967	4.76069	25.8612	-233.468	2.16534	2.38362	-229.306	-0.328847	-25.8602	-249.132	-5.51304	38.7717	-254.83	-9.73931	15.2709	-260.698	-9.94628	-6.56055	-242.745	15.9169	74.5921	-245.47	20.3786	99.1952	-213.549	27.1361	91.2337	
11	0.0916667	-190.452	10.5717	108.188	-162.979	-1.31557	100.024	-142.449	-7.67308	84.9551	-128.823	-15.1845	69.7471	-190.375	17.4204	30.7643	-182.464	14.1375	6.29583	-181.104	9.91522	-15.6761	-213.875	11.8934	22.8736	-212.214	5.5621	-4.9996	-208.227	-3.81863	-33.9513	-235.107	0.299374	26.991	-231.999	-4.66402	2.354	-232.219	-11.7144	-23.1367	-250.02	-9.76737	33.3958	-253.664	-16.9799	17.2821	-263.491	-21.0493	-8.39337	-246.268	15.0328	71.1473	-252.475	19.8644	99.1047	-214.822	27.0658	88.426	
12	0.1	-191.814	10.5426	101.829	-169.703	-5.12261	95.7388	-144.379	-10.9114	84.5028	-128.082	-17.4908	70.7289	-191.932	11.6567	27.5176	-183	6.53038	5.62454	-181.581	-0.670107	-15.7027	-214.443	4.992	19.3897	-213.264	-5.44165	-7.18928	-210.973	-16.837	-30.1517	-238.867	-7.15153	24.5007	-232.466	-14.8303	-0.91246	-232.119	-25.2225	-23.8012	-255.629	-18.2317	38.2246	-257.348	-26.796	18.9269	-263.457	-32.432	-8.21841	-244.078	10.3866	69.1784	-252.623	18.4256	99.8896	-220.104	24.8136	87.7801	
13	0.108333	-191.334	5.7513	106.024	-166.33	-10.0053	96.553	-145.174	-18.2567	82.8349	-129.329	-27.6099	70.212	-197.037	4.26009	29.9207	-187.306	-0.809305	7.36633	-181.864	-11.0195	-19.3785	-217.253	-0.933801	17.5207	-212.993	-11.4992	-6.46891	-210.106	-24.24	-28.8967	-237.615	-11.5614	22.854	-236.787	-20.9089	2.95195	-233.37	-32.185	-21.2957	-255.015	-20.959	34.1462	-260.334	-33.4792	14.4832	-263.863	-38.7687	-7.00529	-245.772	6.45866	69.2448	-252.668	17.0488	96.8674	-220.947	23.6197	88.4462	
